<?xml version="1.0" standalone="no"?>
<!DOCTYPE svg PUBLIC "-//W3C//DTD SVG 20010904//EN"
 "http://www.w3.org/TR/2001/REC-SVG-20010904/DTD/svg10.dtd">
<svg version="1.0" xmlns="http://www.w3.org/2000/svg"
 width="1320.000000pt" height="90.000000pt" viewBox="0 0 1320.000000 90.000000"
 preserveAspectRatio="xMidYMid meet">

<g transform="translate(0.000000,90.000000) scale(0.100000,-0.100000)"
fill="#000000" stroke="none">
<path d="M1124 883 c-10 -17 -51 -18 -550 -23 -296 -3 -534 -7 -528 -8 6 -1
16 -19 21 -41 6 -21 115 -212 242 -425 l232 -386 6052 0 6052 1 34 57 c19 31
104 169 189 306 85 136 172 281 193 322 21 41 48 83 58 93 11 11 27 34 36 50
l15 30 -2587 2 c-1424 1 -2631 3 -2683 5 -52 1 -501 3 -997 3 -796 1 -903 3
-903 16 0 13 -24 15 -162 13 -94 0 -144 -4 -118 -7 l45 -7 -50 -5 c-27 -2 -65
-2 -85 0 l-35 5 35 7 c19 3 -984 7 -2230 8 -2147 1 -2266 0 -2276 -16z m-1024
-93 c0 -5 -2 -10 -4 -10 -3 0 -8 5 -11 10 -3 6 -1 10 4 10 6 0 11 -4 11 -10z"/>
<path d="M6168 893 c7 -3 16 -2 19 1 4 3 -2 6 -13 5 -11 0 -14 -3 -6 -6z"/>
</g>
</svg>
